<svg width="80" height="80" viewBox="0 0 80 80" fill="none" xmlns="http://www.w3.org/2000/svg">
<rect width="80" height="80" fill="#1E1E1E"/>
<g clip-path="url(#clip0_0_1)">
<rect width="1440" height="2533" transform="translate(-821 -754)" fill="#080809"/>
<rect width="1440" height="200" transform="translate(-821 -46)" fill="url(#paint0_linear_0_1)"/>
<rect width="80" height="80" rx="40" fill="url(#paint1_linear_0_1)"/>
<path d="M15.625 14.275C15.625 15.1688 25.7 25 26.5937 25C27 25 28.1375 24.1875 29.1937 23.2125L31.1437 21.425L37.1562 27.4375L43.25 33.45L45.85 30.9313L48.5312 28.4125L50.9687 29.9563C52.35 30.85 54.5437 31.4188 56.0062 31.3375C57.9562 31.175 59.2562 31.7438 61.125 33.5313C64.1312 36.375 65.5125 35.5625 62.5875 32.6375L60.475 30.525L62.425 27.6C64.7812 24.1875 64.8625 21.3438 62.8312 18.0125C59.825 13.1375 52.7562 12.4063 48.8562 16.55C47.3125 18.175 46.9062 19.475 46.9062 23.05C46.9062 26.4625 46.5 27.7625 45.0375 29.225L43.25 31.0125L37.1562 25L31.0625 18.9875L28.7875 21.1813L26.5125 23.375L21.7187 18.5C17.1687 13.8688 15.625 12.8125 15.625 14.275ZM56.7375 18.0125C58.2812 19.6375 58.2 20.125 56.25 20.125C55.3562 20.125 54.625 20.45 54.625 20.8563C54.625 21.2625 55.3562 21.75 56.25 21.9938C58.1187 22.4813 58.3625 24.7563 56.6562 26.95C55.6 28.3313 55.4375 28.3313 54.3 27.1938C52.5937 25.4875 52.675 25 54.625 25C55.5187 25 56.25 24.5938 56.25 24.1875C56.25 23.7 55.6812 23.375 55.0312 23.375C53.1625 23.375 52.5937 21.1 53.8125 18.825C55.1125 16.55 55.1937 16.4688 56.7375 18.0125Z" fill="#DFAF3D"/>
<path d="M27.1625 42.3063C26.5937 43.7688 26.1875 45.2313 26.1875 45.5563C26.1875 45.8813 29.0312 46.125 32.525 46.125H38.8625L39.8375 43.4438C40.4062 41.9813 40.8125 40.5188 40.8125 40.1938C40.8125 39.8688 37.9687 39.625 34.475 39.625H28.1375L27.1625 42.3063Z" fill="#DFAF3D"/>
<path d="M41.7875 42.3063C41.2187 43.7688 40.8125 45.2313 40.8125 45.5563C40.8125 45.8813 43.7375 46.125 47.3125 46.125C50.8875 46.125 53.8125 45.8813 53.8125 45.5563C53.8125 45.2313 53.4062 43.7688 52.8375 42.3063C51.8625 39.7063 51.7 39.625 47.3125 39.625C42.925 39.625 42.7625 39.7063 41.7875 42.3063Z" fill="#DFAF3D"/>
<path d="M19.0375 50.4313C18.4687 51.8938 18.0625 53.3563 18.0625 53.6813C18.0625 54.0063 20.9062 54.25 24.4 54.25H30.7375L31.7125 51.5688C32.2812 50.1063 32.6875 48.6438 32.6875 48.3188C32.6875 47.9938 29.8437 47.75 26.35 47.75H20.0125L19.0375 50.4313Z" fill="#DFAF3D"/>
<path d="M33.6625 50.4313C33.0937 51.8938 32.6875 53.3563 32.6875 53.6813C32.6875 54.0063 35.6125 54.25 39.1875 54.25C42.7625 54.25 45.6875 54.0063 45.6875 53.6813C45.6875 53.3563 45.2812 51.8938 44.7125 50.4313C43.7375 47.8313 43.575 47.75 39.1875 47.75C34.8 47.75 34.6375 47.8313 33.6625 50.4313Z" fill="#DFAF3D"/>
<path d="M45.6875 48.725C45.6875 49.2937 46.0938 50.35 46.5 51C47.2313 52.0562 47.3938 52.0562 48.125 51C49.425 49.05 49.1 47.75 47.3125 47.75C46.4188 47.75 45.6875 48.2375 45.6875 48.725Z" fill="#DFAF3D"/>
<path d="M49.9125 50.4313C49.3437 51.8938 48.9375 53.3563 48.9375 53.6813C48.9375 54.0063 51.8625 54.25 55.4375 54.25C59.0125 54.25 61.9375 54.0063 61.9375 53.6813C61.9375 53.3563 61.5312 51.8938 60.9625 50.4313C59.9875 47.8313 59.825 47.75 55.4375 47.75C51.05 47.75 50.8875 47.8313 49.9125 50.4313Z" fill="#DFAF3D"/>
<path d="M19.0375 58.5563C18.4687 60.0188 18.0625 61.4813 18.0625 61.8063C18.0625 62.1313 20.9062 62.375 24.4 62.375H30.7375L31.7125 59.6938C32.2812 58.2313 32.6875 56.7688 32.6875 56.4438C32.6875 56.1188 29.8437 55.875 26.35 55.875H20.0125L19.0375 58.5563Z" fill="#DFAF3D"/>
<path d="M33.6625 58.5563C33.0937 60.0188 32.6875 61.4813 32.6875 61.8063C32.6875 62.1313 35.6125 62.375 39.1875 62.375C42.7625 62.375 45.6875 62.1313 45.6875 61.8063C45.6875 61.4813 45.2812 60.0188 44.7125 58.5563C43.7375 55.9563 43.575 55.875 39.1875 55.875C34.8 55.875 34.6375 55.9563 33.6625 58.5563Z" fill="#DFAF3D"/>
<path d="M45.6875 56.85C45.6875 57.4187 46.0938 58.475 46.5 59.125C47.2313 60.1812 47.3938 60.1812 48.125 59.125C49.425 57.175 49.1 55.875 47.3125 55.875C46.4188 55.875 45.6875 56.3625 45.6875 56.85Z" fill="#DFAF3D"/>
<path d="M49.9125 58.5563C49.3437 60.0188 48.9375 61.4813 48.9375 61.8063C48.9375 62.1313 51.8625 62.375 55.4375 62.375C59.0125 62.375 61.9375 62.1313 61.9375 61.8063C61.9375 61.4813 61.5312 60.0188 60.9625 58.5563C59.9875 55.9563 59.825 55.875 55.4375 55.875C51.05 55.875 50.8875 55.9563 49.9125 58.5563Z" fill="#DFAF3D"/>
</g>
<defs>
<linearGradient id="paint0_linear_0_1" x1="0" y1="0" x2="1578.11" y2="438.113" gradientUnits="userSpaceOnUse">
<stop stop-color="#343434"/>
<stop offset="1" stop-color="#0F0D0D" stop-opacity="0"/>
</linearGradient>
<linearGradient id="paint1_linear_0_1" x1="9.26829" y1="11.7073" x2="61.9512" y2="73.1707" gradientUnits="userSpaceOnUse">
<stop stop-color="#5F5F5F"/>
<stop offset="1" stop-color="#565656" stop-opacity="0"/>
</linearGradient>
<clipPath id="clip0_0_1">
<rect width="1440" height="2533" fill="white" transform="translate(-821 -754)"/>
</clipPath>
</defs>
</svg>
