<svg width="52" height="52" viewBox="0 0 52 52" fill="none" xmlns="http://www.w3.org/2000/svg">
<rect width="52" height="52" fill="#1E1E1E"/>
<g clip-path="url(#clip0_0_1)">
<rect width="1440" height="2533" transform="translate(-835 -766)" fill="#080809"/>
<rect width="1440" height="200" transform="translate(-835 -58)" fill="url(#paint0_linear_0_1)"/>
<rect x="-14" y="-12" width="80" height="80" rx="40" fill="url(#paint1_linear_0_1)"/>
<path d="M1.625 2.27501C1.625 3.16876 11.7 13 12.5937 13C13 13 14.1375 12.1875 15.1937 11.2125L17.1437 9.42501L23.1562 15.4375L29.25 21.45L31.85 18.9313L34.5312 16.4125L36.9687 17.9563C38.35 18.85 40.5437 19.4188 42.0062 19.3375C43.9562 19.175 45.2562 19.7438 47.125 21.5313C50.1312 24.375 51.5125 23.5625 48.5875 20.6375L46.475 18.525L48.425 15.6C50.7812 12.1875 50.8625 9.34376 48.8312 6.01251C45.825 1.13751 38.7562 0.406259 34.8562 4.55001C33.3125 6.17501 32.9062 7.47501 32.9062 11.05C32.9062 14.4625 32.5 15.7625 31.0375 17.225L29.25 19.0125L23.1562 13L17.0625 6.98751L14.7875 9.18126L12.5125 11.375L7.71875 6.50001C3.16875 1.86876 1.625 0.81251 1.625 2.27501ZM42.7375 6.01251C44.2812 7.63751 44.2 8.12501 42.25 8.12501C41.3562 8.12501 40.625 8.45001 40.625 8.85626C40.625 9.26251 41.3562 9.75001 42.25 9.99376C44.1187 10.4813 44.3625 12.7563 42.6562 14.95C41.6 16.3313 41.4375 16.3313 40.3 15.1938C38.5937 13.4875 38.675 13 40.625 13C41.5187 13 42.25 12.5938 42.25 12.1875C42.25 11.7 41.6812 11.375 41.0312 11.375C39.1625 11.375 38.5937 9.10001 39.8125 6.82501C41.1125 4.55001 41.1937 4.46876 42.7375 6.01251Z" fill="#DFAF3D"/>
<path d="M13.1625 30.3063C12.5937 31.7688 12.1875 33.2313 12.1875 33.5563C12.1875 33.8813 15.0312 34.125 18.525 34.125H24.8625L25.8375 31.4438C26.4062 29.9813 26.8125 28.5188 26.8125 28.1938C26.8125 27.8688 23.9687 27.625 20.475 27.625H14.1375L13.1625 30.3063Z" fill="#DFAF3D"/>
<path d="M27.7875 30.3063C27.2187 31.7688 26.8125 33.2313 26.8125 33.5563C26.8125 33.8813 29.7375 34.125 33.3125 34.125C36.8875 34.125 39.8125 33.8813 39.8125 33.5563C39.8125 33.2313 39.4062 31.7688 38.8375 30.3063C37.8625 27.7063 37.7 27.625 33.3125 27.625C28.925 27.625 28.7625 27.7063 27.7875 30.3063Z" fill="#DFAF3D"/>
<path d="M5.0375 38.4313C4.46875 39.8938 4.0625 41.3563 4.0625 41.6813C4.0625 42.0063 6.90625 42.25 10.4 42.25H16.7375L17.7125 39.5688C18.2812 38.1063 18.6875 36.6438 18.6875 36.3188C18.6875 35.9938 15.8437 35.75 12.35 35.75H6.0125L5.0375 38.4313Z" fill="#DFAF3D"/>
<path d="M19.6625 38.4313C19.0937 39.8938 18.6875 41.3563 18.6875 41.6813C18.6875 42.0063 21.6125 42.25 25.1875 42.25C28.7625 42.25 31.6875 42.0063 31.6875 41.6813C31.6875 41.3563 31.2812 39.8938 30.7125 38.4313C29.7375 35.8313 29.575 35.75 25.1875 35.75C20.8 35.75 20.6375 35.8313 19.6625 38.4313Z" fill="#DFAF3D"/>
<path d="M31.6875 36.725C31.6875 37.2937 32.0938 38.35 32.5 39C33.2313 40.0562 33.3938 40.0562 34.125 39C35.425 37.05 35.1 35.75 33.3125 35.75C32.4188 35.75 31.6875 36.2375 31.6875 36.725Z" fill="#DFAF3D"/>
<path d="M35.9125 38.4313C35.3437 39.8938 34.9375 41.3563 34.9375 41.6813C34.9375 42.0063 37.8625 42.25 41.4375 42.25C45.0125 42.25 47.9375 42.0063 47.9375 41.6813C47.9375 41.3563 47.5312 39.8938 46.9625 38.4313C45.9875 35.8313 45.825 35.75 41.4375 35.75C37.05 35.75 36.8875 35.8313 35.9125 38.4313Z" fill="#DFAF3D"/>
<path d="M5.0375 46.5563C4.46875 48.0188 4.0625 49.4813 4.0625 49.8063C4.0625 50.1313 6.90625 50.375 10.4 50.375H16.7375L17.7125 47.6938C18.2812 46.2313 18.6875 44.7688 18.6875 44.4438C18.6875 44.1188 15.8437 43.875 12.35 43.875H6.0125L5.0375 46.5563Z" fill="#DFAF3D"/>
<path d="M19.6625 46.5563C19.0937 48.0188 18.6875 49.4813 18.6875 49.8063C18.6875 50.1313 21.6125 50.375 25.1875 50.375C28.7625 50.375 31.6875 50.1313 31.6875 49.8063C31.6875 49.4813 31.2812 48.0188 30.7125 46.5563C29.7375 43.9563 29.575 43.875 25.1875 43.875C20.8 43.875 20.6375 43.9563 19.6625 46.5563Z" fill="#DFAF3D"/>
<path d="M31.6875 44.85C31.6875 45.4187 32.0938 46.475 32.5 47.125C33.2313 48.1812 33.3938 48.1812 34.125 47.125C35.425 45.175 35.1 43.875 33.3125 43.875C32.4188 43.875 31.6875 44.3625 31.6875 44.85Z" fill="#DFAF3D"/>
<path d="M35.9125 46.5563C35.3437 48.0188 34.9375 49.4813 34.9375 49.8063C34.9375 50.1313 37.8625 50.375 41.4375 50.375C45.0125 50.375 47.9375 50.1313 47.9375 49.8063C47.9375 49.4813 47.5312 48.0188 46.9625 46.5563C45.9875 43.9563 45.825 43.875 41.4375 43.875C37.05 43.875 36.8875 43.9563 35.9125 46.5563Z" fill="#DFAF3D"/>
</g>
<defs>
<linearGradient id="paint0_linear_0_1" x1="0" y1="0" x2="1578.11" y2="438.113" gradientUnits="userSpaceOnUse">
<stop stop-color="#343434"/>
<stop offset="1" stop-color="#0F0D0D" stop-opacity="0"/>
</linearGradient>
<linearGradient id="paint1_linear_0_1" x1="-4.73171" y1="-0.292683" x2="47.9512" y2="61.1707" gradientUnits="userSpaceOnUse">
<stop stop-color="#5F5F5F"/>
<stop offset="1" stop-color="#565656" stop-opacity="0"/>
</linearGradient>
<clipPath id="clip0_0_1">
<rect width="1440" height="2533" fill="white" transform="translate(-835 -766)"/>
</clipPath>
</defs>
</svg>
