<svg width="80" height="68" viewBox="0 0 80 68" fill="none" xmlns="http://www.w3.org/2000/svg">
<path fill-rule="evenodd" clip-rule="evenodd" d="M48.1116 28.2453C48.0933 26.929 47.9188 25.6013 47.5697 24.2646C46.3456 19.5735 40.8843 16.5619 35.0716 15.8538C29.2612 15.1457 23.2188 16.757 20.8901 20.8376C19.558 23.1706 19.3743 25.1814 19.9186 26.8768C20.4606 28.563 21.7466 29.961 23.492 31.0503C28.3585 34.0847 36.8813 34.7042 40.7695 33.4356C42.5677 32.8478 44.3245 32.1398 46.0355 31.3295C45.0572 36.6334 41.4124 41.658 36.5482 46.1857C25.977 56.0262 9.57238 63.4951 0.638597 66.2412C0.158608 66.3887 -0.107821 66.8926 0.0414584 67.3669C0.190737 67.8412 0.700574 68.1068 1.18056 67.9592C10.2912 65.1587 27.0151 57.5309 37.7953 47.4952C43.3646 42.3116 47.3331 36.4767 48.0106 30.3423C60.6006 23.6949 70.9399 11.6348 79.7795 1.48563C80.1079 1.11116 80.0643 0.541497 79.6831 0.216959C79.3018 -0.10531 78.7276 -0.0644767 78.3992 0.31226C69.9202 10.0461 60.0792 21.6251 48.1116 28.2453ZM46.2813 29.2098C46.3502 27.7301 46.2032 26.2277 45.8058 24.7117C44.7471 20.6515 39.8806 18.2504 34.8488 17.6376C31.7644 17.2632 28.5929 17.5718 26.1056 18.6703C24.5417 19.3602 23.2532 20.361 22.4769 21.7227C21.4573 23.5088 21.2368 25.0362 21.6547 26.3321C22.0727 27.6371 23.1109 28.6855 24.4636 29.5275C28.8983 32.294 36.6585 32.8819 40.1976 31.7267C42.2852 31.0459 44.3108 30.197 46.2813 29.2098Z" fill="#EDEDED" fill-opacity="0.76"/>
</svg>
