<svg width="52" height="52" viewBox="0 0 52 52" fill="none" xmlns="http://www.w3.org/2000/svg">
<path d="M22.464 4.73199C19.968 5.45999 16.796 8.89199 16.068 11.544C14.872 16.172 16.692 21.008 20.644 23.452C23.608 25.324 28.652 25.22 31.564 23.296C34.788 21.164 36.14 18.616 36.14 14.56C36.14 10.556 34.788 7.95599 31.72 5.92799C29.484 4.41999 25.22 3.89999 22.464 4.73199ZM29.432 7.07199C34.788 9.61999 35.932 16.172 31.772 20.332C28.34 23.764 23.504 23.712 20.176 20.228C13.832 13.572 21.164 3.17199 29.432 7.07199Z" fill="#DFAF3D"/>
<path d="M24.596 11.024C22.724 11.648 22.1 13.312 23.92 12.844C24.856 12.584 24.96 12.844 24.96 15.652C24.96 18.356 25.064 18.72 26 18.72C26.936 18.72 27.04 18.356 27.04 14.56C27.04 12.272 26.884 10.4 26.676 10.452C26.416 10.504 25.48 10.764 24.596 11.024Z" fill="#DFAF3D"/>
<path d="M7.54 5.72C7.072 6.448 7.852 7.332 10.4 9.1C12.272 10.4 13.52 10.504 13.52 9.36C13.52 8.84 8.944 5.2 8.268 5.2C8.06 5.2 7.696 5.46 7.54 5.72Z" fill="#DFAF3D"/>
<path d="M40.872 7.07201C38.584 8.78801 38.064 9.82801 39.312 10.244C40.092 10.504 44.824 6.76001 44.564 6.08401C44.2 4.99201 43.316 5.20001 40.872 7.07201Z" fill="#DFAF3D"/>
<path d="M5.46003 14.04C4.78403 15.132 6.08403 15.652 9.15203 15.496C11.44 15.392 12.22 15.132 12.22 14.56C12.22 13.572 6.03203 13.104 5.46003 14.04Z" fill="#DFAF3D"/>
<path d="M39.78 14.04C39.104 15.132 40.404 15.652 43.472 15.496C45.76 15.392 46.54 15.132 46.54 14.56C46.54 13.572 40.352 13.104 39.78 14.04Z" fill="#DFAF3D"/>
<path d="M9.672 20.592C7.384 22.308 6.864 23.348 8.112 23.764C8.892 24.024 13.624 20.28 13.364 19.604C13 18.512 12.116 18.72 9.672 20.592Z" fill="#DFAF3D"/>
<path d="M38.74 19.24C38.272 19.968 39.052 20.852 41.6 22.62C43.472 23.92 44.72 24.024 44.72 22.88C44.72 22.36 40.144 18.72 39.468 18.72C39.26 18.72 38.896 18.98 38.74 19.24Z" fill="#DFAF3D"/>
<path d="M38.688 30.836L32.448 34.684L25.22 31.512C16.068 27.56 13.572 27.352 6.864 30.108C2.392 31.928 1.612 32.5 2.496 33.384C2.86 33.748 4.524 33.332 7.852 31.98C14.092 29.432 15.652 29.588 24.96 33.644C30.628 36.14 32.032 36.92 32.136 37.856C32.396 39.728 31.096 39.728 25.168 37.96C21.216 36.816 19.448 36.504 19.084 36.868C18.72 37.232 18.668 37.596 19.032 37.96C19.916 38.844 30.316 41.652 31.564 41.34C33.072 40.976 34.528 38.792 34.164 37.388C33.956 36.556 34.528 35.932 37.544 34.008C39.52 32.708 42.328 31.044 43.68 30.264C46.072 28.964 46.28 28.912 47.112 29.744C47.58 30.212 47.84 30.94 47.684 31.356C47.216 32.656 29.64 45.76 28.392 45.76C27.768 45.76 24.024 44.616 20.02 43.16C16.016 41.756 12.064 40.56 11.18 40.56C7.904 40.612 1.144 44.98 2.444 46.28C2.912 46.8 3.744 46.436 6.24 44.772C8.06 43.576 10.088 42.64 10.92 42.64C11.7 42.64 15.704 43.836 19.812 45.292C25.324 47.216 27.768 47.84 29.068 47.632C30.264 47.476 33.696 45.188 39.884 40.456C44.876 36.712 49.192 33.176 49.452 32.708C50.232 31.148 49.972 29.64 48.62 28.34C47.944 27.612 46.8 27.04 46.124 27.04C45.5 27.04 42.12 28.756 38.688 30.836Z" fill="#DFAF3D"/>
</svg>
