<svg width="54" height="33" viewBox="0 0 54 33" fill="none" xmlns="http://www.w3.org/2000/svg">
<path fill-rule="evenodd" clip-rule="evenodd" d="M6.87004 0.0802633C4.73711 1.03751 2.61868 1.96576 0.514763 2.98465C0.0613337 3.20221 -0.127265 3.74241 0.0903815 4.19203C0.308028 4.64527 0.852087 4.83388 1.30189 4.61633C3.39492 3.60469 5.49517 2.68371 7.61359 1.73372C8.07065 1.52704 8.27388 0.990379 8.07074 0.537136C7.86398 0.0802668 7.3271 -0.126416 6.87004 0.0802633Z" fill="white"/>
<path fill-rule="evenodd" clip-rule="evenodd" d="M22.5405 11.4041C19.4427 18.1085 16.6857 24.9652 13.733 31.7312C13.5335 32.1917 13.7439 32.7247 14.2009 32.9241C14.6616 33.1236 15.1948 32.9169 15.3979 32.4564C18.3434 25.7012 21.093 18.8555 24.1872 12.1656C24.3976 11.7087 24.1982 11.172 23.7448 10.9617C23.2877 10.7514 22.7509 10.9509 22.5405 11.4041Z" fill="white"/>
<path fill-rule="evenodd" clip-rule="evenodd" d="M49.1187 13.1446C50.109 19.3087 51.2734 25.4547 52.1948 31.6297C52.271 32.1228 52.7316 32.4636 53.2249 32.3911C53.7219 32.3185 54.0628 31.8545 53.9903 31.3614C53.0653 25.1791 51.9009 19.0259 50.9069 12.8545C50.8271 12.3614 50.3629 12.0241 49.8695 12.1039C49.3726 12.1837 49.0389 12.6478 49.1187 13.1446Z" fill="white"/>
</svg>
