<svg width="80" height="80" viewBox="0 0 80 80" fill="none" xmlns="http://www.w3.org/2000/svg">
<rect width="80" height="80" rx="40" fill="url(#paint0_linear_2_8435)"/>
<path d="M20.448 18.368C20.656 20.968 21.28 21.904 23.152 22.112C25.128 22.424 25.44 23.048 25.44 27.728C25.44 32.408 25.856 33.344 29.184 36.464L32.824 40L29.184 43.536C25.856 46.656 25.44 47.592 25.44 52.272C25.44 56.952 25.128 57.576 23.152 57.888C21.28 58.096 20.656 59.032 20.448 61.632L20.136 64.96H40H59.864L59.552 61.632C59.344 59.032 58.72 58.096 56.952 57.888C54.872 57.576 54.56 56.952 54.56 52.272C54.56 47.592 54.144 46.656 50.816 43.536L47.176 40L50.816 36.464C54.144 33.344 54.56 32.408 54.56 27.728C54.56 23.048 54.872 22.424 56.952 22.112C58.72 21.904 59.344 20.968 59.552 18.368L59.864 15.04H40H20.136L20.448 18.368ZM57.68 18.68C57.68 20.032 54.976 20.24 40 20.24C25.024 20.24 22.32 20.032 22.32 18.68C22.32 17.328 25.024 17.12 40 17.12C54.976 17.12 57.68 17.328 57.68 18.68ZM52.48 27C52.48 31.992 51.128 34.072 45.2 38.128L42.6 40L45.2 41.768C51.128 45.928 52.48 48.008 52.48 53C52.48 58.408 51.232 59.032 49.36 54.456C48.008 51.232 42.392 46.24 40 46.24C37.608 46.24 31.992 51.232 30.64 54.456C28.768 59.032 27.52 58.408 27.52 53C27.52 48.008 28.872 45.928 34.8 41.768L37.4 40L34.8 38.128C28.872 34.072 27.52 31.992 27.52 27V22.32H40H52.48V27ZM57.68 61.32C57.68 62.672 54.976 62.88 40 62.88C25.024 62.88 22.32 62.672 22.32 61.32C22.32 59.968 25.024 59.76 40 59.76C54.976 59.76 57.68 59.968 57.68 61.32Z" fill="#DFAF3D"/>
<defs>
<linearGradient id="paint0_linear_2_8435" x1="9.26829" y1="11.7073" x2="61.9512" y2="73.1707" gradientUnits="userSpaceOnUse">
<stop stop-color="#5F5F5F"/>
<stop offset="1" stop-color="#565656" stop-opacity="0"/>
</linearGradient>
</defs>
</svg>
