<svg width="139" height="12" viewBox="0 0 139 12" fill="none" xmlns="http://www.w3.org/2000/svg">
<path fill-rule="evenodd" clip-rule="evenodd" d="M51.5347 5.15058C50.6876 5.33087 49.8454 5.5223 49.0082 5.72569C48.7035 5.79962 48.5173 6.10562 48.5916 6.40877L48.5955 6.4207C44.0609 6.4966 39.5272 6.61561 34.9958 6.77887C28.4497 7.01494 21.8623 7.40568 15.3388 8.01466C8.89212 8.61642 7.11107 8.77112 1.56488 9.78022C1.40627 9.80906 1.10026 9.8071 0.935655 9.85287C0.779123 9.89633 0.667093 9.97216 0.595163 10.0464C0.503026 10.1405 0.450062 10.2489 0.427661 10.3676C0.403963 10.4969 0.411119 10.655 0.52264 10.8315C0.837251 11.3271 1.34553 11.4634 1.96531 11.3592C2.49859 11.2695 3.14319 10.951 3.64837 10.9148C12.0582 10.3133 20.4623 9.64578 28.873 9.05637C41.7489 8.15411 54.5859 7.73181 67.4251 7.48163C80.9234 7.60553 94.4151 8.09782 107.884 8.93011C116.656 9.47179 125.409 10.2742 134.17 10.9766C134.163 11.015 134.162 11.0551 134.164 11.096C134.183 11.4074 134.453 11.6448 134.766 11.626C135.083 11.6069 137.911 11.5279 138.432 11.4002C138.731 11.327 138.847 11.1435 138.886 11.0649C138.991 10.8494 138.997 10.6152 138.763 10.3916C138.716 10.3487 138.63 10.2778 138.471 10.2326C138.336 10.1928 137.999 10.1426 137.388 10.0961C127.576 9.34215 117.776 8.40895 107.953 7.80138C103.568 7.53101 99.18 7.29569 94.7885 7.09856C100.749 7.02387 106.711 6.93877 112.683 6.81302C112.94 6.80835 113.065 6.7668 113.088 6.75699C113.416 6.61612 113.439 6.35818 113.432 6.21199C113.431 6.15981 113.386 5.72915 112.905 5.66849C112.623 5.63283 110.589 5.56294 109.807 5.52133C106.046 5.31797 106.134 5.34977 102.287 5.17401C93.8269 4.78861 85.3793 4.53125 76.9094 4.32262C73.5324 4.23957 70.1555 4.1725 66.7778 4.12303C76.5118 3.30153 86.4474 3.33898 95.9161 3.24094C100.801 3.19047 105.686 3.17028 110.571 3.23487C112.759 3.26386 114.946 3.32939 117.133 3.36927C117.813 3.38159 118.491 3.40973 119.169 3.4261C119.25 3.42795 120.303 3.43698 120.476 3.43329C120.928 3.42367 121.033 3.02252 121.037 3.00644C121.056 2.93095 121.131 2.39117 120.568 2.30767C112.446 1.10106 103.932 1.37984 95.7284 1.18076C81.3705 0.832267 66.9744 0.900712 52.6172 1.33938C46.267 1.53335 39.9372 1.94061 33.5958 2.3458C30.4288 2.5482 27.2533 2.76277 24.1165 3.25857C23.8018 3.30839 23.0886 3.35944 22.7427 3.41852C22.5667 3.44868 22.4413 3.49632 22.3839 3.52884C22.1324 3.67001 22.0824 3.87777 22.0784 4.02346C22.0759 4.13263 22.0993 4.51707 22.6176 4.63471C30.0231 6.31787 38.2401 5.23894 45.7596 5.17816C47.6845 5.16258 49.6089 5.1535 51.5347 5.15058ZM57.805 5.16289C55.5746 5.50142 53.3663 5.90353 51.1893 6.3822C56.6028 6.31122 62.0167 6.30154 67.4327 6.35139C76.3675 6.1773 85.3022 6.08628 94.2476 5.97481C88.4635 5.76092 82.6777 5.59535 76.8821 5.4527C70.5253 5.29612 64.1654 5.19678 57.805 5.16289ZM88.7628 2.17476C76.7282 1.99435 64.6771 2.1017 52.6538 2.4691C46.3149 2.66278 39.9984 3.06941 33.6694 3.47385C31.179 3.63298 28.6819 3.79885 26.2042 4.10691C32.6062 4.89414 39.4274 4.09892 45.7497 4.0479C49.7427 4.01565 53.7376 4.01095 57.7313 4.03208C67.8853 2.50215 78.493 2.27443 88.7628 2.17476Z" fill="#DFAF3D"/>
</svg>
