<svg width="40" height="44" viewBox="0 0 40 44" fill="none" xmlns="http://www.w3.org/2000/svg">
<path fill-rule="evenodd" clip-rule="evenodd" d="M13.3834 41.0606C9.56403 39.9845 5.56522 39.4416 1.68612 38.9443C0.850621 38.84 0.0749171 39.4218 0.0152387 40.2415C-0.104118 41.0618 0.493016 41.812 1.26884 41.9162C5.02858 42.395 8.90733 42.9073 12.5477 43.9432C13.3235 44.1679 14.1594 43.7054 14.3981 42.9097C14.6368 42.1145 14.1593 41.2859 13.3834 41.0606Z" fill="white"/>
<path fill-rule="evenodd" clip-rule="evenodd" d="M24.9606 25.8036C18.8137 19.5056 11.891 14.0183 5.86347 7.55135C5.32636 6.94738 4.37151 6.91502 3.77472 7.47885C3.17794 8.04328 3.11849 8.99238 3.71528 9.59636C9.7428 16.0819 16.6655 21.5872 22.8124 27.9038C23.4092 28.4934 24.3638 28.5017 24.9606 27.9217C25.4977 27.3423 25.5574 26.3932 24.9606 25.8036Z" fill="white"/>
<path fill-rule="evenodd" clip-rule="evenodd" d="M36.4793 1.5793C36.6584 5.18398 36.837 8.78865 37.0161 12.3939C37.0161 13.2196 37.7326 13.8571 38.5681 13.817C39.4036 13.7762 40 13.0734 40 12.2471C39.821 8.63647 39.6423 5.02639 39.4632 1.41632C39.4036 0.590648 38.6873 -0.0426876 37.8518 0.00225102C37.076 0.0471897 36.4196 0.754227 36.4793 1.5793Z" fill="white"/>
</svg>
